<?xml version="1.0" standalone="no"?>
<!DOCTYPE svg PUBLIC "-//W3C//DTD SVG 20010904//EN"
 "http://www.w3.org/TR/2001/REC-SVG-20010904/DTD/svg10.dtd">
<svg version="1.0" xmlns="http://www.w3.org/2000/svg"
 width="1000.000000pt" height="1000.000000pt" viewBox="0 0 1000.000000 1000.000000"
 preserveAspectRatio="xMidYMid meet">
<metadata>
Created by potrace 1.11, written by Peter Selinger 2001-2013
</metadata>
<g transform="translate(0.000000,1000.000000) scale(0.100000,-0.100000)"
fill="#000000" stroke="none">
<path d="M0 5000 l0 -5000 5000 0 5000 0 0 5000 0 5000 -5000 0 -5000 0 0
-5000z m3660 2149 c540 -49 917 -261 1132 -639 175 -307 218 -811 102 -1182
-102 -326 -315 -566 -632 -716 l-102 -47 378 -688 c331 -605 377 -685 383
-660 4 15 152 909 330 1985 l324 1958 1531 0 1531 0 -22 -127 c-12 -71 -49
-284 -81 -475 l-58 -348 -943 0 c-519 0 -943 -3 -943 -6 0 -11 -110 -698 -115
-721 l-5 -23 850 0 850 0 -5 -22 c-6 -28 -155 -910 -155 -920 0 -5 -382 -8
-850 -8 -467 0 -850 -2 -850 -4 0 -2 -63 -386 -140 -851 -77 -466 -140 -849
-140 -851 0 -2 -370 -4 -822 -4 l-823 0 -427 798 c-236 438 -437 812 -448 830
l-20 32 -467 -2 -468 -3 -3 -827 -2 -828 -325 0 -325 0 0 2180 0 2180 823 0
c491 0 868 -4 937 -11z"/>
<path d="M2552 5808 l3 -793 500 1 c417 0 516 3 597 17 207 36 357 104 464
213 142 144 211 389 185 651 -14 136 -34 210 -82 309 -105 214 -312 341 -622
383 -46 7 -276 11 -563 11 l-484 0 2 -792z"/>
</g>
</svg>
